# xmcd CD database file generated by MAGIX_Freedb v0.9beta0
# 
# Track frame offsets:
#      150
#      13507
#      25255
#      52282
#      79750
#      96817
#      113722
#      130332
#      160040
#      178980
#      196195
#      210423
#      223283
#      238685
#      252083
#      266838
#      278765
#      294278
#      329633
# 
# Disc length: 4593 seconds
# 
# Revision: 0 
# Processed by: cddbd v1.4PL0 Copyright (c) Steve Scherf et al.
# Submitted via: MAGIX_Freedb v0.9beta0
# 
DISCID=1b11ef13
DTITLE=Lou Reed - The Blues Brothers - Coney Island Baby - The Blues Brothers
DYEAR=1900
DGENRE=
TTITLE0=Lou Reed  - Crazy feeling
TTITLE1=Lou Reed - Charley's girl
TTITLE2=Lou Reed  - She's my best friend
TTITLE3=Lou Reed  - Kicks
TTITLE4=Lou Reed  - A gift
TTITLE5=Lou Reed  - Ooohhh baby
TTITLE6=Lou Reed  - Nobody's business
TTITLE7=Lou Reed  - Coney Island baby
TTITLE8=The Blues Brothers - She caught the Katy
TTITLE9=The Blues Brothers - Peter Gunn theme
TTITLE10=The Blues Brothers - Gimme some lovin'
TTITLE11=The Blues Brothers - Shake your tailfeather
TTITLE12=The Blues Brothers - Everybody needs somebody to love
TTITLE13=The Blues Brothers - The old landmark
TTITLE14=The Blues Brothers - Think
TTITLE15=The Blues Brothers - Theme from Rawhide
TTITLE16=The Blues Brothers - Minnie the Moocher
TTITLE17=The Blues Brothers - Sweet home Chicago
TTITLE18=The Blues Brothers - Jalhouse rock
EXTD=
EXTT0=
EXTT1=
EXTT2=
EXTT3=
EXTT4=
EXTT5=
EXTT6=
EXTT7=
EXTT8=
EXTT9=
EXTT10=
EXTT11=
EXTT12=
EXTT13=
EXTT14=
EXTT15=
EXTT16=
EXTT17=
EXTT18=
PLAYORDER=
